<svg xmlns="http://www.w3.org/2000/svg" viewBox="0 0 842 140" role="img" aria-label="Nexa Web">
  <title>Nexa Web</title>
  <defs>
    <linearGradient id="dd-verre" x1="0" y1="0" x2="0.35" y2="1"><stop offset="0" stop-color="#6B541B" stop-opacity=".55"/><stop offset="1" stop-color="#0A0A0B"/></linearGradient>
    <linearGradient id="dd-rim" x1="0" y1="0" x2="1" y2="1"><stop offset="0" stop-color="#D4B36A" stop-opacity=".95"/><stop offset=".45" stop-color="#D4B36A" stop-opacity=".25"/><stop offset="1" stop-color="#D4B36A" stop-opacity=".8"/></linearGradient>
    <linearGradient id="dd-or" x1="0" y1="0" x2="1" y2="1"><stop offset="0" stop-color="#E3C684"/><stop offset=".45" stop-color="#D4B36A"/><stop offset="1" stop-color="#B8974F"/></linearGradient>
    <clipPath id="dd-tuile"><rect width="140" height="140" rx="30.8"/></clipPath>
  </defs>
  <rect width="140" height="140" rx="30.8" fill="url(#dd-verre)"/>
  <g clip-path="url(#dd-tuile)">
    <ellipse cx="70" cy="14" rx="50.4" ry="15.4" fill="#FFFFFF" opacity=".13"/>
    <g fill="#E3C684"><circle cx="30" cy="96" r="1.8" opacity="0.4"/><circle cx="106" cy="44" r="1.3" opacity="0.34"/><circle cx="46" cy="118" r="1.1" opacity="0.3"/><circle cx="118" cy="98" r="1.6" opacity="0.26"/><circle cx="86" cy="22" r="1" opacity="0.3"/><circle cx="24" cy="58" r="1.2" opacity="0.22"/></g>
    <g transform="translate(38.08 28) scale(0.84)"><path d="M0 0h18.9v100h-18.9ZM57.1 0h18.9v100h-18.9Z" fill="#0A0A0B" stroke="#D4B36A" stroke-width="5" stroke-linejoin="round"/></g>
    <g transform="translate(38.08 28) scale(0.84)"><path d="M18.9 0L40.75 0L57.1 100L35.25 100Z" fill="url(#dd-or)"/><path d="M25.46 10L41.8 90" fill="none" stroke="#FFFFFF" stroke-width="4.91" stroke-opacity=".45" stroke-linecap="round" stroke-dasharray="22 13"/><circle cx="66.55" cy="117.96" r="5.67" fill="url(#dd-or)"/></g>
  </g>
  <rect x="2.25" y="2.25" width="135.5" height="135.5" rx="28.55" fill="none" stroke="url(#dd-rim)" stroke-width="4.5"/>
  <defs><linearGradient id="dd-mot" x1="0" y1="0" x2=".3" y2="1"><stop offset="0" stop-color="#E3C684"/><stop offset="1" stop-color="#B8974F"/></linearGradient></defs>
  <g transform="translate(184 20)"><path d="M0 0h18v100h-18ZM58 0h18v100h-18ZM18 0L38.94 0L58 100L37.06 100ZM88 0h18v100h-18ZM88 0h60v18h-60ZM88 41.72h50.4v16.56h-50.4ZM88 82h60v18h-60ZM160 0L182.18 0L232 100L209.82 100ZM209.82 0L232 0L182.18 100L160 100ZM263.68 0L283 0L263.32 100L244 100ZM283 0L302.32 0L322 100L302.68 100ZM269.62 60.44h26.76v15.12h-26.76Z" fill="url(#dd-mot)"/><g transform="translate(348 0)"><path d="M-5.82 0L5.82 0L33.86 80.54L53.34 0L64.66 0L40.47 100L28.99 100ZM53.34 0L64.66 0L84.14 80.54L112.18 0L123.82 0L89.01 100L77.53 100ZM152 0h11v100h-11ZM152 0h60v11h-60ZM152 44.94h50.4v10.12h-50.4ZM152 89h60v11h-60ZM246 0H283.05A26.95 25 0 0 1 283.05 50H246ZM257 11V44.5H280.85A15.95 19.5 0 0 0 280.85 11ZM246 50H284.5A25.5 25 0 0 1 284.5 100H246ZM257 55.5V89H282.3A14.5 19.5 0 0 0 282.3 55.5Z" fill="#F4F2EE"/></g></g>
</svg>
