<svg xmlns="http://www.w3.org/2000/svg" viewBox="0 0 140 140" role="img" aria-label="Nexa Web">
  <title>Nexa Web</title>
  <defs>
    <linearGradient id="lgv-verre" x1="0" y1="0" x2="0.35" y2="1"><stop offset="0" stop-color="var(--lg-verre-haut)" stop-opacity="var(--lg-verre-haut-a)"/><stop offset="1" stop-color="var(--lg-verre-bas)"/></linearGradient>
    <linearGradient id="lgv-rim" x1="0" y1="0" x2="1" y2="1"><stop offset="0" stop-color="var(--lg-rim)" stop-opacity=".95"/><stop offset=".45" stop-color="var(--lg-rim)" stop-opacity=".25"/><stop offset="1" stop-color="var(--lg-rim)" stop-opacity=".8"/></linearGradient>
    <linearGradient id="lgv-or" x1="0" y1="0" x2="1" y2="1"><stop offset="0" stop-color="var(--lg-or-clair)"/><stop offset=".45" stop-color="var(--lg-or-moyen)"/><stop offset="1" stop-color="var(--lg-or-sombre)"/></linearGradient>
    <linearGradient id="lgv-dome" x1="0" y1="0" x2="0" y2="1"><stop offset="0" stop-color="var(--lg-eclat)" stop-opacity="var(--lg-dome-a)"/><stop offset=".55" stop-color="var(--lg-eclat)" stop-opacity="var(--lg-dome-a2)"/><stop offset="1" stop-color="var(--lg-eclat)" stop-opacity="0"/></linearGradient>
    <radialGradient id="lgv-rebond"><stop offset="0" stop-color="var(--lg-rim)" stop-opacity="var(--lg-rebond-a)"/><stop offset="1" stop-color="var(--lg-rim)" stop-opacity="0"/></radialGradient>
    <clipPath id="lgv-tuile"><rect width="140" height="140" rx="30.8"/></clipPath>
  </defs>
  <rect width="140" height="140" rx="30.8" fill="url(#lgv-verre)"/>
  <g clip-path="url(#lgv-tuile)">
    <rect width="140" height="72.8" fill="url(#lgv-dome)"/>
    <ellipse cx="70" cy="137.2" rx="70" ry="36.4" fill="url(#lgv-rebond)"/>
    <g fill="var(--lg-or-clair)"><circle cx="30" cy="96" r="1.8" opacity="0.4"/><circle cx="106" cy="44" r="1.3" opacity="0.34"/><circle cx="46" cy="118" r="1.1" opacity="0.3"/><circle cx="118" cy="98" r="1.6" opacity="0.26"/><circle cx="86" cy="22" r="1" opacity="0.3"/><circle cx="24" cy="58" r="1.2" opacity="0.22"/></g>
    <g transform="translate(38.08 28) scale(0.84)"><path d="M0 0h18.9v100h-18.9ZM57.1 0h18.9v100h-18.9Z" fill="var(--lg-lettre-fond)" stroke="var(--lg-lettre-arete)" stroke-width="5" stroke-linejoin="round"/></g>
    <g transform="translate(38.08 28) scale(0.84)"><path class="lg-or" d="M18.9 0L40.75 0C52.47 34 48.78 70 57.1 100L35.25 100C26.93 70 30.62 34 18.9 0Z" fill="url(#lgv-or)"/><path class="lg-reflet" d="M26.33 10C36.91 38 35.12 68 42.68 90" fill="none" stroke="var(--lg-eclat)" stroke-width="4.91" stroke-opacity=".45" stroke-linecap="round" stroke-dasharray="22 13"/><circle class="lg-goutte" cx="66.55" cy="117.96" r="5.67" fill="url(#lgv-or)"/></g>
  </g>
  <rect x="2.25" y="2.25" width="135.5" height="135.5" rx="28.55" fill="none" stroke="url(#lgv-rim)" stroke-width="4.5"/>
</svg>
